<?xml version="1.0" encoding="UTF-8"?>
<svg width="12px" height="12px" viewBox="0 0 12 12" version="1.1" xmlns="http://www.w3.org/2000/svg" xmlns:xlink="http://www.w3.org/1999/xlink">
    <!-- Generator: Sketch 61.2 (89653) - https://sketch.com -->
    <title>添加标签</title>
    <desc>Created with Sketch.</desc>
    <g id="页面-1" stroke="none" stroke-width="1" fill="none" fill-rule="evenodd">
        <g id="iPhone-11-Pro备份-10" transform="translate(-37.000000, -194.000000)" fill-rule="nonzero">
            <g id="编组-2">
                <g id="编组-3备份-4" transform="translate(20.000000, 183.000000)">
                    <g id="添加标签" transform="translate(15.000000, 9.000000)">
                        <rect id="矩形" fill="#000000" opacity="0" x="0" y="0" width="16" height="16"></rect>
                        <path d="M13.75,7 L9,7 L9,2.25 C9,2.1125 8.8875,2 8.75,2 L7.25,2 C7.1125,2 7,2.1125 7,2.25 L7,7 L2.25,7 C2.1125,7 2,7.1125 2,7.25 L2,8.75 C2,8.8875 2.1125,9 2.25,9 L7,9 L7,13.75 C7,13.8875 7.1125,14 7.25,14 L8.75,14 C8.8875,14 9,13.8875 9,13.75 L9,9 L13.75,9 C13.8875,9 14,8.8875 14,8.75 L14,7.25 C14,7.1125 13.8875,7 13.75,7 Z" id="路径" fill="#FFA621"></path>
                    </g>
                </g>
            </g>
        </g>
    </g>
</svg>