<?xml version="1.0" encoding="UTF-8"?>
<svg width="32px" height="19px" viewBox="0 0 32 19" version="1.1" xmlns="http://www.w3.org/2000/svg" xmlns:xlink="http://www.w3.org/1999/xlink">
    <!-- Generator: Sketch 61.2 (89653) - https://sketch.com -->
    <title>delete</title>
    <desc>Created with Sketch.</desc>
    <g id="页面-1" stroke="none" stroke-width="1" fill="none" fill-rule="evenodd">
        <g id="iPhone-11-Pro备份-10" transform="translate(-304.000000, -492.000000)" fill="#333333" fill-rule="nonzero">
            <g id="编组-8备份" transform="translate(280.000000, 473.000000)">
                <path d="M52.4080164,19 C54.0648706,19 55.4080164,20.3431458 55.4080164,22 L55.4080164,22 L55.4080164,35 C55.4080164,36.6568542 54.0648706,38 52.4080164,38 L52.4080164,38 L32.386184,38 C31.4604127,38 30.5864959,37.5725815 30.0181273,36.8418218 L30.0181273,36.8418218 L24.631948,29.9167341 C23.7495023,28.7821611 23.7957749,27.1811122 24.7422745,26.0993984 L24.7422745,26.0993984 L30.0578227,20.0244862 C30.627487,19.3734413 31.4504651,19 32.3155528,19 L32.3155528,19 Z M52.4080164,21 L32.3155528,21 C32.0271902,21 31.7528642,21.1244804 31.5629761,21.3414954 L31.5629761,21.3414954 L26.2474279,27.4164076 C25.931928,27.7769789 25.9165038,28.3106619 26.2106524,28.6888529 L26.2106524,28.6888529 L31.5968318,35.6139406 C31.786288,35.8575272 32.0775935,36 32.386184,36 L32.386184,36 L52.4080164,36 C52.9603011,36 53.4080164,35.5522847 53.4080164,35 L53.4080164,35 L53.4080164,22 C53.4080164,21.4477153 52.9603011,21 52.4080164,21 L52.4080164,21 Z M39.9791668,25.9358222 C40.4022415,26.290824 40.4574254,26.9215796 40.1024236,27.3446543 L38.713,29 L40.1024236,30.6553457 C40.4574254,31.0784204 40.4022415,31.709176 39.9791668,32.0641778 C39.5560921,32.4191796 38.9253365,32.3639956 38.5703347,31.9409209 L37.408,30.555 L36.245698,31.9409209 C35.8906962,32.3639956 35.2599406,32.4191796 34.8368659,32.0641778 C34.4137913,31.709176 34.3586073,31.0784204 34.7136091,30.6553457 L36.102,29 L34.7136091,27.3446543 C34.3586073,26.9215796 34.4137913,26.290824 34.8368659,25.9358222 C35.2599406,25.5808204 35.8906962,25.6360044 36.245698,26.0590791 L37.408,27.444 L38.5703347,26.0590791 C38.9253365,25.6360044 39.5560921,25.5808204 39.9791668,25.9358222 Z" id="delete"></path>
            </g>
        </g>
    </g>
</svg>