<?xml version="1.0" encoding="UTF-8"?>
<svg width="26px" height="26px" viewBox="0 0 26 26" version="1.1" xmlns="http://www.w3.org/2000/svg" xmlns:xlink="http://www.w3.org/1999/xlink">
    <!-- Generator: Sketch 61.2 (89653) - https://sketch.com -->
    <title>标签-未选中</title>
    <desc>Created with Sketch.</desc>
    <g id="页面-1" stroke="none" stroke-width="1" fill="none" fill-rule="evenodd" opacity="0.5">
        <g id="iPhone-11-Pro备份-7" transform="translate(-299.000000, -741.000000)" fill="#000000" fill-rule="nonzero">
            <g id="编组-2">
                <g id="编组-5" transform="translate(0.000000, 732.000000)">
                    <g id="标签-未选中" transform="translate(297.000000, 7.000000)">
                        <rect id="矩形" opacity="0" x="0" y="0" width="30.3999996" height="30.3999996"></rect>
                        <path d="M27.8468747,13.6206248 L26.9681247,4.34031245 C26.9235934,3.85937495 26.5406247,3.47937496 26.0596872,3.43187496 L16.7793748,2.55312497 L16.7674998,2.55312497 C16.6724998,2.55312497 16.598281,2.58281247 16.5418748,2.63921872 L2.63921872,16.5418748 C2.52343747,16.657656 2.52343747,16.8446873 2.63921872,16.9604685 L13.4395311,27.7607809 C13.4959373,27.8171872 13.5701561,27.8468747 13.6503123,27.8468747 C13.7304686,27.8468747 13.8046873,27.8171872 13.8610936,27.7607809 L27.7637497,13.8581248 C27.8231247,13.7957811 27.8528122,13.7096873 27.8468747,13.6206248 Z M13.6473436,24.7801559 L5.61984368,16.752656 L17.4859373,4.88656244 L24.8187497,5.58124993 L25.5134372,12.9140623 L13.6473436,24.7801559 Z M20.1874997,7.5999999 C18.747656,7.5999999 17.5749998,8.77265614 17.5749998,10.2124999 C17.5749998,11.6523436 18.747656,12.8249998 20.1874997,12.8249998 C21.6273435,12.8249998 22.7999997,11.6523436 22.7999997,10.2124999 C22.7999997,8.77265614 21.6273435,7.5999999 20.1874997,7.5999999 Z M20.1874997,11.1624999 C19.662031,11.1624999 19.2374998,10.7379686 19.2374998,10.2124999 C19.2374998,9.68703113 19.662031,9.26249988 20.1874997,9.26249988 C20.7129685,9.26249988 21.1374997,9.68703113 21.1374997,10.2124999 C21.1374997,10.7379686 20.7129685,11.1624999 20.1874997,11.1624999 Z" id="形状"></path>
                    </g>
                </g>
            </g>
        </g>
    </g>
</svg>