<?xml version="1.0" encoding="UTF-8"?>
<svg width="26px" height="26px" viewBox="0 0 26 26" version="1.1" xmlns="http://www.w3.org/2000/svg" xmlns:xlink="http://www.w3.org/1999/xlink">
    <!-- Generator: Sketch 61.2 (89653) - https://sketch.com -->
    <title>标签-选中</title>
    <desc>Created with Sketch.</desc>
    <g id="页面-1" stroke="none" stroke-width="1" fill="none" fill-rule="evenodd">
        <g id="iPhone-11-Pro备份-8" transform="translate(-283.000000, -741.000000)" fill-rule="nonzero">
            <g id="标签-选中" transform="translate(281.000000, 739.000000)">
                <rect id="矩形" fill="#000000" opacity="0" x="0" y="0" width="30.3999996" height="30.3999996"></rect>
                <path d="M27.8468747,13.6206248 L26.9681247,4.34031245 C26.9235934,3.85937495 26.5406247,3.47937496 26.0596872,3.43187496 L16.7793748,2.55312497 L16.7674998,2.55312497 C16.6724998,2.55312497 16.598281,2.58281247 16.5418748,2.63921872 L2.63921872,16.5418748 C2.52343747,16.657656 2.52343747,16.8446873 2.63921872,16.9604685 L13.4395311,27.7607809 C13.4959373,27.8171872 13.5701561,27.8468747 13.6503123,27.8468747 C13.7304686,27.8468747 13.8046873,27.8171872 13.8610936,27.7607809 L27.7637497,13.8581248 C27.8231247,13.7957811 27.8528122,13.7096873 27.8468747,13.6206248 Z" id="形状" fill="#292B55"></path>
                <path d="M20.1874997,7.0999999 C21.9034859,7.0999999 23.2999997,8.49651377 23.2999997,10.2124999 C23.2999997,11.928486 21.9034859,13.3249998 20.1874997,13.3249998 C18.4715136,13.3249998 17.0749998,11.928486 17.0749998,10.2124999 C17.0749998,8.49651377 18.4715136,7.0999999 20.1874997,7.0999999 Z" id="路径" stroke="#FFFFFF" fill="#FEBF48"></path>
            </g>
        </g>
    </g>
</svg>