<?xml version="1.0" encoding="UTF-8"?>
<svg width="201px" height="155px" viewBox="0 0 201 155" version="1.1" xmlns="http://www.w3.org/2000/svg" xmlns:xlink="http://www.w3.org/1999/xlink">
    <!-- Generator: Sketch 61.2 (89653) - https://sketch.com -->
    <title>编组 2</title>
    <desc>Created with Sketch.</desc>
    <defs>
        <linearGradient x1="49.9964425%" y1="77.2638037%" x2="49.9964425%" y2="-0.736196319%" id="linearGradient-1">
            <stop stop-color="#FFFFFF" stop-opacity="0" offset="0%"></stop>
            <stop stop-color="#FFDFA2" offset="100%"></stop>
        </linearGradient>
        <linearGradient x1="113.797383%" y1="214.55523%" x2="5.87831781%" y2="-137.53796%" id="linearGradient-2">
            <stop stop-color="#FF8D00" offset="0%"></stop>
            <stop stop-color="#FFEEC1" offset="100%"></stop>
        </linearGradient>
        <linearGradient x1="113.797383%" y1="65.0780191%" x2="5.87831781%" y2="32.8160981%" id="linearGradient-3">
            <stop stop-color="#FF8D00" offset="0%"></stop>
            <stop stop-color="#FFEEC1" offset="100%"></stop>
        </linearGradient>
        <linearGradient x1="49.9964425%" y1="77.2638037%" x2="49.9964425%" y2="-0.736196319%" id="linearGradient-4">
            <stop stop-color="#FFFFFF" stop-opacity="0" offset="0%"></stop>
            <stop stop-color="#FFDFA2" offset="100%"></stop>
        </linearGradient>
        <linearGradient x1="40.0535454%" y1="150.179219%" x2="40.0535454%" y2="9.91581249%" id="linearGradient-5">
            <stop stop-color="#FC9D80" offset="0%"></stop>
            <stop stop-color="#FA802E" offset="100%"></stop>
        </linearGradient>
        <linearGradient x1="9.37358426%" y1="17.3000347%" x2="50%" y2="79.6144938%" id="linearGradient-6">
            <stop stop-color="#FF8D00" offset="0%"></stop>
            <stop stop-color="#FFEEC1" offset="100%"></stop>
        </linearGradient>
        <linearGradient x1="-9.91836303%" y1="54.6659245%" x2="113.851618%" y2="45.3043704%" id="linearGradient-7">
            <stop stop-color="#FFB34C" offset="0.0527871622%"></stop>
            <stop stop-color="#FFAA3A" offset="100%"></stop>
        </linearGradient>
    </defs>
    <g id="页面-1" stroke="none" stroke-width="1" fill="none" fill-rule="evenodd">
        <g id="iPhone-11-Pro备份-11" transform="translate(-88.000000, -238.000000)">
            <g id="编组-2" transform="translate(83.000000, 238.000000)">
                <path d="M210.825,165.9 C203.475,138.255 159.09,117 105.42,117 C51.75,117 7.35,138.255 -8.52651283e-14,165.9 L210.825,165.9 Z" id="路径" fill="url(#linearGradient-1)" fill-rule="nonzero"></path>
                <path d="M168,21.25 L164.25,21.25 L164.25,17.5 C164.25,16.6715729 163.578427,16 162.75,16 L162.75,16 C161.921573,16 161.25,16.6715729 161.25,17.5 L161.25,21.25 L157.5,21.25 C156.671573,21.25 156,21.9215729 156,22.75 L156,22.75 C156,23.5784271 156.671573,24.25 157.5,24.25 L161.25,24.25 L161.25,28 C161.25,28.8284271 161.921573,29.5 162.75,29.5 L162.75,29.5 C163.578427,29.5 164.25,28.8284271 164.25,28 L164.25,24.25 L168,24.25 C168.828427,24.25 169.5,23.5784271 169.5,22.75 L169.5,22.75 C169.5,21.9215729 168.828427,21.25 168,21.25 Z" id="元素-右上" fill="url(#linearGradient-2)"></path>
                <path d="M27,73.5 C23.6862915,73.5 21,76.1862915 21,79.5 C21,82.8137085 23.6862915,85.5 27,85.5 C30.3137085,85.5 33,82.8137085 33,79.5 C33,77.9087011 32.367859,76.3825776 31.2426407,75.2573593 C30.1174224,74.132141 28.5912989,73.5 27,73.5 Z M27,82.695 C25.2354502,82.695 23.805,81.2645498 23.805,79.5 C23.805,77.7354502 25.2354502,76.305 27,76.305 C28.7645498,76.305 30.195,77.7354502 30.195,79.5 C30.195,80.3473667 29.8583849,81.1600274 29.2592062,81.7592062 C28.6600274,82.3583849 27.8473667,82.695 27,82.695 L27,82.695 Z" id="元素-左侧" fill="url(#linearGradient-2)"></path>
                <circle id="元素-右下" fill="url(#linearGradient-2)" cx="172.22" cy="111.22" r="3.72"></circle>
                <g id="飞碟和地" transform="translate(39.000000, 0.000000)">
                    <g>
                        <circle id="椭圆形" fill="url(#linearGradient-2)" cx="44.75" cy="13.25" r="13.25"></circle>
                        <ellipse id="椭圆形" fill="url(#linearGradient-3)" transform="translate(48.250000, 26.500000) rotate(-13.000000) translate(-48.250000, -26.500000) " cx="48.25" cy="26.5" rx="46.25" ry="14"></ellipse>
                        <circle id="椭圆形" fill="#FFEDCB" fill-rule="nonzero" transform="translate(39.500000, 7.000000) rotate(-45.000000) translate(-39.500000, -7.000000) " cx="39.5" cy="7" r="3"></circle>
                        <polygon id="路径-2" fill="url(#linearGradient-4)" fill-rule="nonzero" points="34.6131265 32.2230628 13 146.5 126 125.903244 63.3728624 26"></polygon>
                        <g id="编组" transform="translate(3.500000, 49.500000)">
                            <path d="M22.99726,64.838675 L28.58746,65.696675 L29.57196,74.036325 C29.70616,75.177025 30.11151,75.932725 30.78636,76.293525 C30.98271,76.398575 31.22361,76.473375 31.50851,76.516825 L31.50851,76.516825 L25.91776,75.658825 C25.63341,75.615375 25.39251,75.540575 25.19616,75.435525 C24.52131,75.075275 24.11596,74.319575 23.98121,73.178325 L23.98121,73.178325 L22.99726,64.838675 Z M55.62678,10.148105 C56.00738,10.136005 56.38413,10.134355 56.75263,10.153055 L56.75263,10.153055 L56.77518,10.153055 C57.18933,10.175055 57.59578,10.216305 57.99343,10.277905 L57.99343,10.277905 L63.58363,11.134805 C63.18488,11.073755 62.77788,11.033055 62.36263,11.011055 L62.36263,11.011055 L62.34283,11.011055 C61.97488,10.991805 61.59813,10.993455 61.21698,11.006105 C61.10148,11.009955 60.98433,11.017655 60.86773,11.024255 C60.57843,11.040755 60.28473,11.066055 59.98828,11.100705 C59.86893,11.113905 59.75013,11.126555 59.62968,11.143055 C59.22488,11.198055 58.81513,11.264605 58.39658,11.353155 C57.94833,11.447205 57.51493,11.561055 57.08978,11.685355 C56.95943,11.723305 56.83293,11.766755 56.70533,11.807455 C56.40668,11.903155 56.11298,12.004905 55.82588,12.115455 C55.69223,12.167155 55.55913,12.219405 55.42713,12.274405 C55.12683,12.399805 54.83368,12.535655 54.54658,12.678655 C54.45253,12.725405 54.35573,12.767755 54.26388,12.816155 C53.89208,13.010855 53.53183,13.220405 53.18258,13.445355 C52.92188,13.613655 52.66723,13.789655 52.41918,13.974455 C52.35868,14.019005 52.30038,14.066855 52.24043,14.113055 C52.04078,14.266505 51.84553,14.426005 51.65413,14.590455 C51.58593,14.649855 51.51718,14.708155 51.45008,14.768655 C51.21138,14.982055 50.97763,15.201505 50.75213,15.433055 C50.44853,15.744905 50.15868,16.071605 49.87708,16.404905 C49.76268,16.539655 49.65213,16.676605 49.54213,16.814655 C49.43983,16.943355 49.33643,17.071505 49.23688,17.202955 C49.12083,17.356955 49.00808,17.515355 48.89533,17.673755 C48.80018,17.807405 48.70448,17.940505 48.61263,18.077455 C48.50263,18.241355 48.39703,18.409655 48.29198,18.576855 C48.20453,18.715455 48.11543,18.852955 48.03128,18.994305 C47.92788,19.168655 47.82943,19.347955 47.73043,19.525605 C47.65123,19.668605 47.56983,19.809405 47.49393,19.954055 C47.44498,20.047005 47.40043,20.143805 47.35313,20.237305 C47.17658,20.584905 47.00883,20.940205 46.84878,21.303755 C46.79378,21.427505 46.73933,21.550705 46.68708,21.675555 C46.49733,22.127105 46.31583,22.586355 46.14973,23.061555 C46.02323,23.424005 45.90278,23.792505 45.78783,24.165405 C45.75043,24.287505 45.71633,24.414005 45.68003,24.537205 C45.60853,24.781405 45.53703,25.025605 45.47048,25.273655 C45.32638,25.809905 45.19658,26.357155 45.07613,26.913755 C45.04808,27.043005 45.02168,27.174455 44.99583,27.305355 C44.88858,27.827305 44.79013,28.356955 44.70433,28.896505 C44.69553,28.955355 44.68398,29.011455 44.67518,29.070305 C44.58388,29.656055 44.50908,30.255005 44.44253,30.861655 C44.42603,31.005755 44.41173,31.151505 44.39743,31.296705 C44.33528,31.914355 44.28193,32.538605 44.24398,33.177705 C44.03058,36.904505 44.15323,40.734155 44.61633,44.655655 C45.07888,48.578255 45.86043,52.224755 46.96373,55.594605 C48.06703,58.964455 49.48658,61.820055 51.21798,64.167455 C52.95268,66.508805 54.99153,68.229205 57.33343,69.328655 C58.29043,69.779105 59.29858,70.086005 60.35678,70.248255 L60.35678,70.248255 L54.76658,69.390255 C54.23748,69.309405 53.72103,69.192255 53.21723,69.038805 C52.71343,68.885355 52.22173,68.696155 51.74323,68.471205 C49.40133,67.371205 47.36248,65.650805 45.62778,63.309455 C43.89583,60.962605 42.47628,58.106455 41.37353,54.737155 C40.26968,51.367305 39.48868,47.720805 39.02558,43.798755 C38.56303,39.876155 38.44038,36.046505 38.65378,32.320255 C38.69118,31.681705 38.74508,31.058005 38.80668,30.440355 C38.82098,30.294055 38.83583,30.147755 38.85233,30.003105 C38.91888,29.396455 38.99368,28.797505 39.08443,28.212305 C39.09378,28.153455 39.10533,28.096805 39.11413,28.039055 C39.19993,27.498955 39.29838,26.970405 39.40453,26.448455 C39.43148,26.317555 39.45788,26.185005 39.48593,26.054655 C39.60638,25.498605 39.73618,24.951355 39.87973,24.416205 C39.88578,24.392005 39.89073,24.366705 39.89733,24.343055 C39.95783,24.119755 40.02438,23.900855 40.08983,23.680855 C40.12613,23.556555 40.16023,23.430605 40.19763,23.307405 C40.31258,22.934505 40.43303,22.566005 40.55953,22.203555 C40.72508,21.728905 40.90713,21.269655 41.09688,20.818105 C41.14913,20.692705 41.20358,20.569505 41.25803,20.446305 C41.41808,20.083855 41.58528,19.728005 41.76183,19.380955 C41.79373,19.317155 41.82178,19.247855 41.85478,19.184605 C41.87018,19.153805 41.88778,19.125755 41.90318,19.096055 C41.97908,18.951405 42.06048,18.812255 42.13858,18.670355 C42.23813,18.491605 42.33713,18.311755 42.44108,18.136855 C42.52523,17.995505 42.61378,17.858005 42.70178,17.719405 C42.80683,17.551655 42.91188,17.383355 43.02243,17.220005 C43.11428,17.083605 43.20943,16.949955 43.30458,16.816305 C43.41733,16.657905 43.53008,16.498955 43.64668,16.344955 C43.74623,16.214055 43.84908,16.085905 43.95138,15.957755 C44.03113,15.858205 44.10593,15.754805 44.18788,15.656905 C44.21923,15.618955 44.25443,15.584855 44.28633,15.547455 C44.56848,15.213605 44.85833,14.886905 45.16193,14.575055 C45.38688,14.343505 45.62118,14.124605 45.85988,13.910655 C45.92698,13.850705 45.99573,13.791855 46.06393,13.733005 C46.25533,13.568005 46.45058,13.409055 46.65023,13.255605 C46.71018,13.209405 46.76848,13.162105 46.82898,13.117005 C47.06163,12.943205 47.29868,12.776005 47.54233,12.616505 C47.55883,12.606605 47.57643,12.597805 47.59238,12.587905 C47.94108,12.362955 48.30188,12.153405 48.67313,11.958705 C48.76553,11.909755 48.86288,11.867405 48.95693,11.820655 C49.24348,11.677655 49.53608,11.541805 49.83638,11.416955 C49.96838,11.361405 50.10203,11.309705 50.23568,11.258005 C50.52278,11.147455 50.81648,11.045155 51.11458,10.950005 C51.24273,10.908755 51.36868,10.865855 51.49958,10.827905 C51.92473,10.703055 52.35813,10.589205 52.80638,10.495155 C53.22438,10.407155 53.63468,10.340605 54.04003,10.285055 C54.15993,10.268555 54.27818,10.255905 54.39698,10.242705 C54.69398,10.208605 54.98768,10.183305 55.27753,10.166255 C55.39413,10.160205 55.51128,10.151955 55.62678,10.148105 Z M22.80311,16.7185201 L23.02421,16.71901 C23.07481,16.72011 23.12706,16.71846 23.17656,16.72066 C23.19251,16.72121 23.21011,16.72011 23.22606,16.72121 C23.40536,16.73056 23.57806,16.74761 23.74251,16.77346 L23.74251,16.77346 L29.33271,17.63091 C29.15341,17.60341 28.96366,17.58746 28.76621,17.57866 C28.71726,17.57646 28.66556,17.57811 28.61551,17.57701 C28.46976,17.57426 28.32071,17.57536 28.16506,17.58306 C28.09631,17.58636 28.02591,17.59021 27.95551,17.59571 C27.80481,17.60726 27.65026,17.62266 27.49186,17.64301 C27.42311,17.65181 27.35546,17.65841 27.28506,17.66886 C27.05736,17.70241 26.82361,17.74256 26.57941,17.79426 C25.72581,17.97356 25.00201,18.22491 24.40746,18.54391 C24.29306,18.60496 24.18251,18.67976 24.07141,18.75566 C23.92291,18.85631 23.77661,18.96961 23.63361,19.09611 C23.61161,19.11536 23.58906,19.13076 23.56706,19.15111 C23.40426,19.30071 23.24641,19.46956 23.09131,19.65216 C22.98076,19.78251 22.87076,19.91671 22.76461,20.06301 C22.65241,20.21646 22.54021,20.38531 22.42746,20.56131 C22.39996,20.60366 22.37301,20.64601 22.34606,20.68891 C22.23386,20.86876 22.12166,21.05686 22.00891,21.25926 C22.00066,21.27356 21.99351,21.28841 21.98581,21.30216 C21.88021,21.49301 21.77406,21.69596 21.66791,21.90606 L21.66791,21.90606 L21.57661,22.08811 C21.46221,22.32021 21.34726,22.55946 21.23176,22.81301 C20.70926,23.95811 20.09601,25.44036 19.38486,27.26086 L19.38486,27.26086 L6.59076,59.01896 C6.27451,59.64211 6.04351,60.17836 5.90546,60.62551 C5.84826,60.80536 5.80536,60.98576 5.76411,61.16671 C5.74981,61.23106 5.73276,61.29541 5.72066,61.35976 C5.68051,61.56601 5.64751,61.77336 5.62826,61.98181 C5.58316,62.43941 5.57821,62.91351 5.61451,63.40796 C5.64751,63.90296 5.70251,64.47881 5.77951,65.13441 C5.95936,66.65846 6.40321,67.84866 7.11436,68.70391 C7.52686,69.20331 8.06861,69.50471 8.74071,69.60756 L8.74071,69.60756 L3.14996,68.74956 C2.47841,68.64671 1.93666,68.34586 1.52416,67.84591 C0.81246,66.99121 0.36916,65.80101 0.18931,64.27641 C0.11231,63.62136 0.05731,63.04551 0.02431,62.55051 C-0.01199,62.05551 -0.00759,61.58196 0.03806,61.12436 C0.05676,60.91591 0.09031,60.70856 0.13046,60.50176 C0.14256,60.43796 0.15906,60.37361 0.17391,60.30926 C0.19371,60.22181 0.20966,60.13381 0.23331,60.04636 C0.25861,59.95286 0.28611,59.86046 0.31526,59.76751 C0.45331,59.32091 0.68431,58.78466 1.00001,58.16096 L1.00001,58.16096 L13.79466,26.40341 C14.50526,24.58236 15.11906,23.10011 15.64156,21.95556 C15.75706,21.70146 15.87146,21.46276 15.98586,21.23121 C16.01666,21.16906 16.04691,21.10911 16.07716,21.04861 L16.07716,21.04861 L16.17341,20.85666 C16.24766,20.71366 16.32136,20.57781 16.39561,20.44416 C16.40331,20.43041 16.41046,20.41556 16.41816,20.40181 C16.53091,20.19996 16.64366,20.01186 16.75531,19.83201 C16.78281,19.78801 16.81031,19.74511 16.83781,19.70276 C16.95001,19.52731 17.06221,19.35846 17.17441,19.20556 C17.26791,19.07741 17.36251,18.95476 17.45931,18.83871 C17.47251,18.82276 17.48736,18.81011 17.50111,18.79416 C17.65621,18.61211 17.81406,18.44271 17.97686,18.29366 C17.99831,18.27331 18.02141,18.25736 18.04341,18.23811 C18.18641,18.11216 18.33216,17.99886 18.48121,17.89766 C18.50321,17.88281 18.52356,17.86191 18.54611,17.84706 C18.63521,17.78931 18.72596,17.73541 18.81726,17.68591 C19.41181,17.36691 20.13561,17.11556 20.98921,16.93626 C21.23341,16.88456 21.46716,16.84496 21.69486,16.81086 C21.76526,16.80096 21.83236,16.79381 21.90111,16.78556 C22.05951,16.76466 22.21406,16.74926 22.36476,16.73826 C22.43516,16.73276 22.50611,16.72836 22.57541,16.72506 C22.72996,16.717887 22.87846,16.71681 23.02421,16.71901 Z M55.63349,19.586105 L61.22369,20.444105 C62.05309,20.571155 62.82419,20.936355 63.53864,21.539705 C64.72224,22.549505 65.76394,23.961905 66.66319,25.782955 C67.55749,27.605105 68.28954,29.699505 68.85879,32.062305 C69.43244,34.428955 69.85319,36.782955 70.12929,39.123205 C70.39989,41.413955 70.52694,43.705805 70.50329,45.999305 C70.48404,48.291705 70.25689,50.404255 69.83174,52.338605 C69.77124,52.609755 69.70579,52.875955 69.63539,53.135005 C69.59084,53.300005 69.54024,53.457855 69.49184,53.617905 C69.47479,53.674005 69.45939,53.731205 69.44234,53.786755 C69.31914,54.175055 69.18329,54.547405 69.03644,54.907105 C69.00949,54.973105 68.98309,55.038555 68.95504,55.104005 C68.82469,55.409805 68.68884,55.709555 68.54089,55.995005 C68.51889,56.037355 68.49359,56.076955 68.47104,56.119305 C68.44134,56.175405 68.40944,56.228755 68.37864,56.284305 C68.19329,56.618155 67.99914,56.942105 67.78739,57.245705 C67.67024,57.414005 67.54814,57.573505 67.42219,57.725305 L67.42219,57.725305 C67.24179,57.942005 67.04984,58.135055 66.85294,58.318205 C66.81004,58.357805 66.76769,58.397405 66.72424,58.435355 C66.52734,58.608055 66.32274,58.767005 66.10824,58.908905 C66.09724,58.915505 66.08844,58.925405 66.07744,58.932555 C66.00594,58.978205 65.92949,59.018355 65.85579,59.061805 C65.78924,59.100305 65.72434,59.141555 65.65669,59.178405 C65.56099,59.229005 65.46144,59.273005 65.36354,59.318655 C65.29699,59.348355 65.23264,59.382455 65.16554,59.409955 C65.05334,59.456705 64.93729,59.495205 64.82124,59.534805 C64.76404,59.554055 64.70794,59.577705 64.64964,59.595855 C64.47254,59.649755 64.29214,59.697055 64.10679,59.736105 C63.87304,59.785055 63.64479,59.816405 63.41929,59.838405 C63.36209,59.844455 63.30489,59.848855 63.24824,59.852705 C63.03264,59.868105 62.82034,59.874155 62.61299,59.864255 L62.61299,59.864255 L62.58769,59.864255 C62.42379,59.855455 62.26209,59.838955 62.10369,59.814755 L62.10369,59.814755 L56.51349,58.956755 C56.67189,58.981505 56.83359,58.998005 56.99749,59.006255 L56.99749,59.006255 L57.02114,59.006255 C57.22849,59.016705 57.44189,59.010105 57.65804,58.995255 C57.71469,58.991405 57.77189,58.986455 57.82854,58.980405 C58.05404,58.958405 58.28284,58.927605 58.51659,58.878655 C58.70194,58.839605 58.88234,58.792305 59.05944,58.737855 C59.11664,58.720255 59.17164,58.697705 59.22829,58.678455 C59.34544,58.637755 59.46259,58.598705 59.57534,58.551955 C59.64244,58.524455 59.70569,58.491455 59.77169,58.461205 C59.87069,58.415555 59.97024,58.371555 60.06649,58.320405 C60.13414,58.284655 60.19904,58.243405 60.26504,58.203805 C60.34974,58.154305 60.43554,58.105355 60.51749,58.050905 C60.73254,57.909555 60.93714,57.750055 61.13404,57.577905 C61.17749,57.539405 61.21984,57.499805 61.26219,57.460755 C61.46019,57.277055 61.65159,57.083455 61.83144,56.868405 L61.83144,56.868405 C61.95794,56.715505 62.08004,56.556005 62.19719,56.388805 C62.40784,56.084655 62.60309,55.760705 62.78844,55.426305 C62.81924,55.371305 62.85059,55.317405 62.88084,55.261855 C63.05409,54.937355 63.21469,54.598555 63.36484,54.246005 C63.39234,54.181105 63.41929,54.115655 63.44624,54.049655 C63.59254,53.689955 63.72894,53.317605 63.85159,52.929855 L63.85159,52.929855 L63.90164,52.759355 C64.02704,52.347405 64.14254,51.923905 64.24099,51.481155 C64.66669,49.546255 64.89329,47.433705 64.91309,45.141305 C64.93674,42.847805 64.80914,40.556505 64.53909,38.265205 C64.26299,35.924955 63.84224,33.570955 63.26804,31.204305 C62.69934,28.842055 61.96729,26.747105 61.07244,24.924955 C60.17374,23.104455 59.13204,21.692055 57.94789,20.682255 C57.23399,20.078355 56.46289,19.713705 55.63349,19.586105 L55.63349,19.586105 Z M102.51362,48.1206 L108.10382,48.9786 L109.08832,57.31825 C109.22252,58.45895 109.62402,59.2152 110.29832,59.57545 C110.49522,59.68105 110.73612,59.75585 111.02102,59.7993 L111.02102,59.7993 L105.43027,58.9413 C105.14537,58.89785 104.90502,58.82305 104.70812,58.71855 C104.03382,58.35775 103.63232,57.6015 103.49757,56.46025 L103.49757,56.46025 L102.51362,48.1206 Z M19.235315,32.96491 L24.825515,33.82291 L27.488065,56.38116 L15.182365,58.96836 L9.592165,58.11091 L21.897865,55.52371 L19.235315,32.96491 Z M33.59939,53.112895 C33.64339,53.114545 33.68684,53.118945 33.72974,53.126095 L33.72974,53.126095 L39.31994,53.984095 C39.26384,53.974745 39.20444,53.975295 39.14614,53.974195 C39.03339,53.971445 38.91789,53.978045 38.79689,54.003895 L38.79689,54.003895 L36.44784,54.497245 L30.85764,53.639795 L33.20669,53.145895 C33.32769,53.120045 33.44319,53.114545 33.55594,53.116195 L33.55594,53.116195 Z M102.540625,0.000935 L102.692975,0.002585 C102.708925,0.003135 102.726525,0.002035 102.743025,0.003135 C102.922325,0.012485 103.094475,0.029535 103.259475,0.055385 L103.259475,0.055385 L108.849675,0.912835 C108.670375,0.885335 108.480075,0.869385 108.283175,0.860585 L108.283175,0.860585 L108.131375,0.858935 C107.985625,0.856185 107.836025,0.857285 107.680925,0.864985 C107.611625,0.868285 107.541225,0.872685 107.470275,0.877635 C107.320125,0.889185 107.165025,0.905135 107.006075,0.924935 C106.936775,0.933735 106.869125,0.940885 106.798725,0.951335 C106.570475,0.985435 106.336175,1.025035 106.091425,1.076735 C105.238375,1.256035 104.514025,1.507385 103.920025,1.826385 C103.805075,1.887985 103.694525,1.962235 103.583425,2.038135 C103.438775,2.136035 103.297975,2.246035 103.159375,2.367585 C103.134075,2.390135 103.107675,2.407735 103.082375,2.430835 C102.920675,2.579335 102.764475,2.746535 102.611025,2.926935 C102.499375,3.058935 102.388275,3.195885 102.281025,3.345485 C102.169375,3.497835 102.057175,3.666685 101.944425,3.842135 C101.916375,3.885585 101.887775,3.930135 101.859725,3.975235 C101.746975,4.156185 101.634225,4.343735 101.520925,4.547235 C101.518725,4.551085 101.515975,4.556035 101.513775,4.560435 C101.402675,4.760635 101.290475,4.974585 101.178275,5.196235 C101.148575,5.253985 101.119975,5.312285 101.090275,5.371135 C100.975325,5.603235 100.860375,5.841935 100.743775,6.095485 C100.225675,7.240035 99.608575,8.722835 98.900725,10.542785 L98.900725,10.542785 L86.102775,42.301435 C85.786525,42.924585 85.559925,43.460285 85.418025,43.907985 C85.360825,44.087835 85.317925,44.268235 85.277775,44.449185 C85.262925,44.512985 85.246425,44.576785 85.234325,44.641685 C85.194175,44.847935 85.161175,45.055285 85.140825,45.264285 C85.095175,45.721885 85.094625,46.194885 85.126525,46.690435 C85.159525,47.185985 85.218375,47.760185 85.295925,48.415785 C85.475775,49.939835 85.919625,51.130035 86.626375,51.986385 C87.038875,52.485785 87.580625,52.787185 88.252725,52.890585 L88.252725,52.890585 L82.661975,52.032585 C81.990425,51.929185 81.448675,51.628335 81.036175,51.128935 C80.328875,50.272585 79.885575,49.082385 79.705725,47.558335 C79.628175,46.902735 79.569325,46.328535 79.536325,45.832985 C79.504425,45.336885 79.504425,44.864435 79.550075,44.406835 C79.570975,44.198385 79.603425,43.990485 79.644125,43.783685 C79.656225,43.719885 79.672725,43.656085 79.687025,43.591185 C79.707925,43.498785 79.724975,43.405835 79.749725,43.313435 C79.773925,43.225435 79.799775,43.137985 79.827275,43.050535 C79.969175,42.602285 80.196325,42.067135 80.512025,41.443985 L80.512025,41.443985 L93.309975,9.685335 C94.017275,7.864835 94.634925,6.382035 95.153575,5.238035 C95.270175,4.983935 95.385675,4.744685 95.500625,4.513135 C95.529225,4.454285 95.558375,4.396535 95.587525,4.338785 C95.617225,4.280485 95.646925,4.218335 95.676625,4.161135 C95.758575,4.003285 95.841075,3.850935 95.922475,3.704635 C95.925225,3.699135 95.927975,3.693635 95.930725,3.689235 C96.044575,3.485735 96.157325,3.298185 96.269525,3.116685 L96.269525,3.116685 L96.353675,2.984685 C96.466425,2.808685 96.578625,2.640385 96.690825,2.487485 C96.786525,2.354935 96.883325,2.228985 96.982325,2.109635 L96.982325,2.109635 L97.020825,2.069485 C97.174275,1.888535 97.330475,1.721335 97.492175,1.573385 C97.516925,1.550835 97.543325,1.532685 97.568625,1.510685 C97.706675,1.388585 97.848575,1.278585 97.993225,1.180135 C98.015225,1.165285 98.036125,1.144385 98.058125,1.129535 C98.147225,1.071785 98.237975,1.017885 98.329275,0.968385 C98.923825,0.649385 99.647625,0.398035 100.501225,0.218735 C100.745975,0.167035 100.980275,0.127435 101.208525,0.093335 C101.278925,0.083435 101.346575,0.075735 101.415325,0.067485 C101.574275,0.047135 101.728825,0.031185 101.878975,0.020185 C101.950475,0.015235 102.021425,0.010285 102.091275,0.006985 C102.245275,-7.98876021e-05 102.394875,-0.001265 102.540625,0.000935 L102.540625,0.000935 Z M98.751675,16.246835 L104.342425,17.104835 L107.004425,39.663085 L94.698725,42.250285 L89.108525,41.392285 L101.414225,38.805085 L98.751675,16.246835 Z M113.113055,36.39515 C113.157605,36.39735 113.201605,36.40175 113.244505,36.40835 L113.244505,36.40835 L118.834705,37.26635 C118.778055,37.257 118.718655,37.25755 118.659805,37.25645 C118.546505,37.25425 118.430455,37.2603 118.308905,37.28615 L118.308905,37.28615 L115.964255,37.7795 L110.374055,36.9215 L112.718705,36.4287 C112.840255,36.40285 112.956305,36.39625 113.069605,36.399 C113.083355,36.399 113.098755,36.39405 113.113055,36.39515 Z" id="形状结合" fill="url(#linearGradient-5)" fill-rule="nonzero"></path>
                            <path d="M30.937555,18.300095 C31.853855,19.057995 32.432455,20.473145 32.676655,22.541145 L36.448005,54.497245 L38.797055,54.003895 C40.123655,53.724495 40.967355,55.114345 41.327055,58.162445 C41.699955,61.322745 41.223105,63.039845 39.896505,63.318695 L37.547455,63.813145 L38.531955,72.152795 C38.679905,73.405145 38.470905,74.314295 37.905505,74.881345 C37.340105,75.442895 36.157605,75.915345 34.358005,76.293745 C32.651355,76.652345 31.461155,76.653995 30.786305,76.293195 C30.112005,75.932945 29.706105,75.177245 29.571905,74.036545 L28.587405,65.696345 L10.380755,69.524345 C8.910605,69.833995 7.821605,69.560095 7.114305,68.703745 C6.403155,67.849045 5.959305,66.658845 5.779455,65.134245 C5.702455,64.479195 5.647455,63.903345 5.614455,63.407795 C5.578155,62.913345 5.583105,62.439795 5.628205,61.982195 C5.669455,61.525695 5.763505,61.073045 5.905405,60.625345 C6.043455,60.178195 6.274455,59.642495 6.590705,59.018795 L19.384805,27.261245 C20.095955,25.440195 20.709205,23.957945 21.231705,22.813395 C21.750355,21.669395 22.261305,20.751445 22.764555,20.063395 C23.267255,19.370395 23.813405,18.862745 24.407405,18.543745 C25.001955,18.224745 25.725755,17.973395 26.579355,17.794095 C28.569255,17.375545 30.021805,17.547695 30.937555,18.300095 Z M66.682605,12.083445 C69.077305,13.226345 71.122755,15.005045 72.813455,17.410195 C74.509105,19.819745 75.874205,22.727045 76.908755,26.141445 C77.940005,29.556395 78.688555,33.219395 79.151655,37.141445 C79.614205,41.068445 79.700555,44.876095 79.407955,48.564395 C79.117005,52.257095 78.414655,55.588995 77.305305,58.552945 C76.200905,61.521295 74.648255,64.026545 72.655605,66.067595 C70.657455,68.104245 68.191255,69.433595 65.254805,70.051245 C62.310655,70.669995 59.671755,70.429095 57.333705,69.328545 C54.991805,68.229095 52.952955,66.508695 51.218255,64.167345 C49.486305,61.820495 48.066755,58.964345 46.963455,55.594495 C45.860155,52.224645 45.079155,48.578145 44.616605,44.656645 C44.153505,40.734045 44.030305,36.904395 44.244255,33.177595 C44.461505,29.445845 45.094555,26.073795 46.150005,23.061445 C47.201055,20.044695 48.736655,17.502595 50.752405,15.432945 C52.767605,13.362195 55.317405,12.000395 58.396305,11.353045 C61.527455,10.694695 64.287355,10.939995 66.682605,12.083445 Z M59.477055,20.507795 C57.960705,20.826795 56.752905,21.707895 55.854205,23.155495 C54.955505,24.603095 54.290005,26.374095 53.858255,28.475095 C53.426505,30.575545 53.199905,32.872345 53.177355,35.358895 C53.155355,37.851495 53.291205,40.319895 53.579955,42.771245 C53.850555,45.057595 54.258655,47.305445 54.813055,49.507095 C55.363055,51.709845 56.072005,53.610095 56.941005,55.213345 C57.810005,56.821545 58.830255,58.054645 60.002305,58.927495 C61.174355,59.795395 62.543855,60.064345 64.106955,59.736545 C65.623305,59.416995 66.849805,58.587595 67.787555,57.246145 C68.720355,55.905795 69.401255,54.270095 69.831355,52.338495 C70.257055,50.404145 70.484205,48.291595 70.503455,45.999195 C70.527105,43.705695 70.400055,41.414395 70.128905,39.123095 C69.852805,36.782845 69.432605,34.428845 68.858955,32.062195 C68.289705,29.699395 67.557655,27.604995 66.663355,25.782845 C65.764105,23.962345 64.722405,22.549395 63.538805,21.539595 C62.345855,20.531445 60.993955,20.189345 59.477055,20.507795 Z M110.453915,1.58202 C111.366365,2.34047 111.948815,3.75507 112.193015,5.82307 L115.964365,37.77917 L118.309015,37.28637 C119.640015,37.00642 120.483715,38.39572 120.842865,41.44437 C121.216315,44.60467 120.739465,46.32177 119.408465,46.60172 L117.063815,47.09452 L118.048315,55.43417 C118.196265,56.68652 117.987265,57.59622 117.421865,58.16272 C116.855915,58.72427 115.673965,59.19727 113.869965,59.57622 C112.163315,59.93482 110.973115,59.93647 110.298265,59.57567 C109.623965,59.21542 109.222465,58.45917 109.088265,57.31847 L108.103765,48.97882 L89.892715,52.80737 C88.422565,53.11647 87.333565,52.84312 86.626265,51.98677 C85.919515,51.13042 85.475665,49.94022 85.295815,48.41562 C85.218815,47.76057 85.159415,47.18637 85.126965,46.69027 C85.094515,46.19472 85.095065,45.72227 85.140165,45.26467 C85.185815,44.80762 85.275465,44.35552 85.417365,43.90837 C85.559815,43.46012 85.786415,42.92497 86.102665,42.30127 L98.901165,10.54317 C99.608465,8.72267 100.225565,7.23987 100.743665,6.09587 C101.266715,4.95132 101.777665,4.03282 102.280915,3.34532 C102.779215,2.65342 103.325915,2.14522 103.920465,1.82622 C104.514465,1.50722 105.237715,1.25587 106.091315,1.07657 C108.085615,0.65692 109.538165,0.82962 110.453915,1.58202 Z M24.825955,33.822745 L15.182255,58.968195 L27.487955,56.380995 L24.825955,33.822745 Z M104.342315,17.10467 L94.698615,42.25012 L107.004315,39.66292 L104.342315,17.10467 Z" id="形状结合" fill="url(#linearGradient-6)"></path>
                        </g>
                    </g>
                    <ellipse id="椭圆形复制" fill="url(#linearGradient-7)" fill-rule="nonzero" transform="translate(48.500000, 29.750000) rotate(-13.000000) translate(-48.500000, -29.750000) " cx="48.5" cy="29.75" rx="15.5" ry="4.75"></ellipse>
                </g>
            </g>
        </g>
    </g>
</svg>