<?xml version="1.0" encoding="UTF-8"?>
<svg width="25px" height="25px" viewBox="0 0 25 25" version="1.1" xmlns="http://www.w3.org/2000/svg" xmlns:xlink="http://www.w3.org/1999/xlink">
    <!-- Generator: Sketch 61.2 (89653) - https://sketch.com -->
    <title>记一笔-未选中</title>
    <desc>Created with Sketch.</desc>
    <g id="页面-1" stroke="none" stroke-width="1" fill="none" fill-rule="evenodd" opacity="0.5">
        <g id="iPhone-11-Pro备份-7" transform="translate(-175.000000, -742.000000)" fill="#000000" fill-rule="nonzero">
            <g id="编组-2">
                <g id="编组-5" transform="translate(0.000000, 732.000000)">
                    <g id="记一笔-未选中" transform="translate(172.000000, 7.000000)">
                        <g id="edit">
                            <rect id="矩形" opacity="0" x="0" y="0" width="31" height="31"></rect>
                            <path d="M7.80146484,22.765625 C7.86201172,22.765625 7.92255859,22.7595703 7.98310547,22.7504883 L13.0750977,21.8574219 C13.1356445,21.8453125 13.1931641,21.8180664 13.2355469,21.7726563 L26.068457,8.93974609 C26.1865234,8.82167969 26.1865234,8.63095703 26.068457,8.51289063 L21.0370117,3.47841797 C20.9794922,3.42089844 20.9038086,3.390625 20.8220703,3.390625 C20.740332,3.390625 20.6646484,3.42089844 20.6071289,3.47841797 L7.77421875,16.3113281 C7.72880859,16.3567383 7.7015625,16.4112305 7.68945313,16.4717773 L6.79638672,21.5637695 C6.73886719,21.8998047 6.84179688,22.2267578 7.08095703,22.465918 C7.28076172,22.659668 7.53203125,22.765625 7.80146484,22.765625 L7.80146484,22.765625 Z M9.84189453,17.4859375 L20.8220703,6.50878906 L23.0411133,8.72783203 L12.0609375,19.7049805 L9.36962891,20.1802734 L9.84189453,17.4859375 L9.84189453,17.4859375 Z M26.640625,25.3085938 L4.359375,25.3085938 C3.82353516,25.3085938 3.390625,25.7415039 3.390625,26.2773438 L3.390625,27.3671875 C3.390625,27.5003906 3.49960937,27.609375 3.6328125,27.609375 L27.3671875,27.609375 C27.5003906,27.609375 27.609375,27.5003906 27.609375,27.3671875 L27.609375,26.2773438 C27.609375,25.7415039 27.1764648,25.3085938 26.640625,25.3085938 Z" id="形状"></path>
                        </g>
                    </g>
                </g>
            </g>
        </g>
    </g>
</svg>