<?xml version="1.0" encoding="UTF-8"?>
<svg width="335px" height="10px" viewBox="0 0 335 10" version="1.1" xmlns="http://www.w3.org/2000/svg" xmlns:xlink="http://www.w3.org/1999/xlink">
    <!-- Generator: Sketch 61.2 (89653) - https://sketch.com -->
    <title>尺</title>
    <desc>Created with Sketch.</desc>
    <g id="页面-1" stroke="none" stroke-width="1" fill="none" fill-rule="evenodd">
        <g id="iPhone-11-Pro备份-16" transform="translate(-20.000000, -238.000000)" fill="#D8D8D8">
            <g id="编组-5">
                <g id="编组-2">
                    <path d="M21,238 L21,248 L20,248 L20,238 L21,238 Z M39,243 L39,248 L38,248 L38,243 L39,243 Z M56,243 L56,248 L55,248 L55,243 L56,243 Z M74,243 L74,248 L73,248 L73,243 L74,243 Z M91,243 L91,248 L90,248 L90,243 L91,243 Z M109,243 L109,248 L108,248 L108,243 L109,243 Z M126,243 L126,248 L125,248 L125,243 L126,243 Z M144,243 L144,248 L143,248 L143,243 L144,243 Z M162,243 L162,248 L161,248 L161,243 L162,243 Z M179,243 L179,248 L178,248 L178,243 L179,243 Z M197,243 L197,248 L196,248 L196,243 L197,243 Z M214,243 L214,248 L213,248 L213,243 L214,243 Z M232,243 L232,248 L231,248 L231,243 L232,243 Z M250,243 L250,248 L249,248 L249,243 L250,243 Z M267,243 L267,248 L266,248 L266,243 L267,243 Z M285,243 L285,248 L284,248 L284,243 L285,243 Z M302,243 L302,248 L301,248 L301,243 L302,243 Z M320,243 L320,248 L319,248 L319,243 L320,243 Z M337,243 L337,248 L336,248 L336,243 L337,243 Z M355,238 L355,248 L354,248 L354,238 L355,238 Z" id="尺"></path>
                </g>
            </g>
        </g>
    </g>
</svg>