<?xml version="1.0" encoding="UTF-8"?>
<svg width="27px" height="29px" viewBox="0 0 27 29" version="1.1" xmlns="http://www.w3.org/2000/svg" xmlns:xlink="http://www.w3.org/1999/xlink">
    <!-- Generator: Sketch 61.2 (89653) - https://sketch.com -->
    <title>setting</title>
    <desc>Created with Sketch.</desc>
    <g id="页面-1" stroke="none" stroke-width="1" fill="none" fill-rule="evenodd" opacity="0.5">
        <g id="iPhone-11-Pro备份-7" transform="translate(-249.000000, -741.000000)" fill="#000000" fill-rule="nonzero">
            <g id="setting" transform="translate(247.000000, 740.000000)">
                <rect id="矩形" opacity="0" x="0" y="0" width="31" height="31"></rect>
                <path d="M27.996875,18.9420898 L26.0139648,17.2467773 C26.1078125,16.671582 26.15625,16.0842773 26.15625,15.4969727 C26.15625,14.909668 26.1078125,14.3223633 26.0139648,13.747168 L27.996875,12.0518555 C28.3026367,11.7915039 28.4146484,11.3676758 28.278418,10.9862305 L28.2511719,10.9075195 C27.7032227,9.37871094 26.8918945,7.97402344 25.8383789,6.7328125 L25.7838867,6.66923828 C25.5235352,6.36347656 25.1027344,6.2484375 24.7212891,6.38164062 L22.2600586,7.25654297 C21.3518555,6.51181641 20.3376953,5.92451172 19.2417969,5.51279297 L18.7665039,2.93955078 C18.6938477,2.54296875 18.3820312,2.23417969 17.9854492,2.16152344 L17.9037109,2.14638672 C16.3264648,1.86181641 14.6674805,1.86181641 13.0902344,2.14638672 L13.0084961,2.16152344 C12.6119141,2.23417969 12.3000977,2.54296875 12.2274414,2.93955078 L11.7491211,5.52490234 C10.6623047,5.93662109 9.65419922,6.52089844 8.75205078,7.26259766 L6.27265625,6.38164063 C5.89423828,6.2484375 5.47041016,6.36044922 5.21005859,6.66923828 L5.15556641,6.7328125 C4.10205078,7.97705078 3.29072266,9.38173828 2.74277344,10.9075195 L2.71552734,10.9862305 C2.57929687,11.3646484 2.69130859,11.7884766 2.99707031,12.0518555 L5.00419922,13.765332 C4.91035156,14.3344727 4.86494141,14.9157227 4.86494141,15.4939453 C4.86494141,16.0751953 4.91035156,16.6564453 5.00419922,17.2225586 L2.99707031,18.9360352 C2.69130859,19.1963867 2.57929688,19.6202148 2.71552734,20.0016602 L2.74277344,20.0803711 C3.29072266,21.6061523 4.10205078,23.0138672 5.15556641,24.2550781 L5.21005859,24.3186523 C5.47041016,24.6244141 5.89121094,24.7394531 6.27265625,24.60625 L8.75205078,23.725293 C9.65419922,24.4669922 10.6623047,25.0542969 11.7491211,25.4629883 L12.2274414,28.0483398 C12.3000977,28.4449219 12.6119141,28.7537109 13.0084961,28.8263672 L13.0902344,28.8415039 C13.8803711,28.9837891 14.6886719,29.0564453 15.4969727,29.0564453 C16.3052734,29.0564453 17.1166016,28.9837891 17.9037109,28.8415039 L17.9854492,28.8263672 C18.3820313,28.7537109 18.6938477,28.4449219 18.7665039,28.0483398 L19.2417969,25.4750977 C20.3376953,25.0633789 21.3518555,24.4791016 22.2600586,23.7313477 L24.7212891,24.60625 C25.099707,24.7394531 25.5235352,24.6274414 25.7838867,24.3186523 L25.8383789,24.2550781 C26.8918945,23.0108398 27.7032227,21.6061523 28.2511719,20.0803711 L28.278418,20.0016602 C28.4146484,19.6292969 28.3026367,19.2054687 27.996875,18.9420898 L27.996875,18.9420898 Z M23.8645508,14.1043945 C23.9402344,14.5615234 23.9795898,15.0307617 23.9795898,15.5 C23.9795898,15.9692383 23.9402344,16.4384766 23.8645508,16.8956055 L23.6647461,18.1095703 L25.9261719,20.044043 C25.584082,20.8341797 25.1511719,21.5789063 24.6365234,22.272168 L21.8271484,21.2761719 L20.8765625,22.0572266 C20.1530273,22.6505859 19.3477539,23.1167969 18.4758789,23.44375 L17.3224609,23.8766602 L16.7805664,26.8131836 C15.9298828,26.9100586 15.0610352,26.9100586 14.2073242,26.8131836 L13.6654297,23.8706055 L12.5210938,23.4316406 C11.6583008,23.1046875 10.8560547,22.6384766 10.1385742,22.0481445 L9.18798828,21.2640625 L6.36044922,22.2691406 C5.84580078,21.5758789 5.41591797,20.828125 5.07080078,20.0410156 L7.35644531,18.0883789 L7.15966797,16.8774414 C7.08701172,16.4263672 7.04765625,15.9601562 7.04765625,15.5 C7.04765625,15.0368164 7.08398438,14.5736328 7.15966797,14.1225586 L7.35644531,12.9116211 L5.07080078,10.9589844 C5.41289063,10.1688477 5.84580078,9.42412109 6.36044922,8.73085937 L9.18798828,9.7359375 L10.1385742,8.95185547 C10.8560547,8.36152344 11.6583008,7.8953125 12.5210938,7.56835937 L13.668457,7.13544922 L14.2103516,4.19287109 C15.0610352,4.09599609 15.9298828,4.09599609 16.7835938,4.19287109 L17.3254883,7.12939453 L18.4789063,7.56230469 C19.3477539,7.88925781 20.1560547,8.35546875 20.8795898,8.94882812 L21.8301758,9.72988281 L24.6395508,8.73388672 C25.1541992,9.42714844 25.584082,10.1749023 25.9291992,10.9620117 L23.6677734,12.8964844 L23.8645508,14.1043945 Z M15.5,9.86914062 C12.5574219,9.86914062 10.171875,12.2546875 10.171875,15.1972656 C10.171875,18.1398438 12.5574219,20.5253906 15.5,20.5253906 C18.4425781,20.5253906 20.828125,18.1398438 20.828125,15.1972656 C20.828125,12.2546875 18.4425781,9.86914062 15.5,9.86914062 Z M17.8976563,17.5949219 C17.2558594,18.2336914 16.4051758,18.5878906 15.5,18.5878906 C14.5948242,18.5878906 13.7441406,18.2336914 13.1023438,17.5949219 C12.4635742,16.953125 12.109375,16.1024414 12.109375,15.1972656 C12.109375,14.2920898 12.4635742,13.4414062 13.1023438,12.7996094 C13.7441406,12.1578125 14.5948242,11.8066406 15.5,11.8066406 C16.4051758,11.8066406 17.2558594,12.1578125 17.8976563,12.7996094 C18.5364258,13.4414062 18.890625,14.2920898 18.890625,15.1972656 C18.890625,16.1024414 18.5364258,16.953125 17.8976563,17.5949219 Z" id="形状"></path>
            </g>
        </g>
    </g>
</svg>