<?xml version="1.0" encoding="UTF-8"?>
<svg width="27px" height="29px" viewBox="0 0 27 29" version="1.1" xmlns="http://www.w3.org/2000/svg" xmlns:xlink="http://www.w3.org/1999/xlink">
    <!-- Generator: Sketch 61.2 (89653) - https://sketch.com -->
    <title>setting备份</title>
    <desc>Created with Sketch.</desc>
    <g id="页面-1" stroke="none" stroke-width="1" fill="none" fill-rule="evenodd">
        <g id="iPhone-11-Pro备份-7" transform="translate(-337.000000, -741.000000)" fill-rule="nonzero">
            <g id="setting备份" transform="translate(335.000000, 740.000000)">
                <rect id="矩形" fill="#000000" opacity="0" x="0" y="0" width="31" height="31"></rect>
                <path d="M13.0902344,2.14638672 C14.6674805,1.86181641 16.3264648,1.86181641 17.9037109,2.14638672 L17.9037109,2.14638672 L17.9854492,2.16152344 C18.3820312,2.23417969 18.6938477,2.54296875 18.7665039,2.93955078 L18.7665039,2.93955078 L19.2417969,5.51279297 C20.3376953,5.92451172 21.3518555,6.51181641 22.2600586,7.25654297 L22.2600586,7.25654297 L24.7212891,6.38164063 C25.1027344,6.2484375 25.5235352,6.36347656 25.7838867,6.66923828 L25.7838867,6.66923828 L25.8383789,6.7328125 C26.8918945,7.97402344 27.7032227,9.37871094 28.2511719,10.9075195 L28.2511719,10.9075195 L28.278418,10.9862305 C28.4146484,11.3676758 28.3026367,11.7915039 27.996875,12.0518555 L27.996875,12.0518555 L26.0139648,13.747168 C26.1078125,14.3223633 26.15625,14.909668 26.15625,15.4969727 C26.15625,16.0842773 26.1078125,16.671582 26.0139648,17.2467773 L26.0139648,17.2467773 L27.996875,18.9420898 C28.3026367,19.2054688 28.4146484,19.6292969 28.278418,20.0016602 L28.278418,20.0016602 L28.2511719,20.0803711 C27.7032227,21.6061523 26.8918945,23.0108398 25.8383789,24.2550781 L25.8383789,24.2550781 L25.7838867,24.3186523 C25.5235352,24.6274414 25.099707,24.7394531 24.7212891,24.60625 L24.7212891,24.60625 L22.2600586,23.7313477 C21.3518555,24.4791016 20.3376953,25.0633789 19.2417969,25.4750977 L19.2417969,25.4750977 L18.7665039,28.0483398 C18.6938477,28.4449219 18.3820312,28.7537109 17.9854492,28.8263672 L17.9854492,28.8263672 L17.9037109,28.8415039 C17.1166016,28.9837891 16.3052734,29.0564453 15.4969727,29.0564453 C14.6886719,29.0564453 13.8803711,28.9837891 13.0902344,28.8415039 L13.0902344,28.8415039 L13.0084961,28.8263672 C12.6119141,28.7537109 12.3000977,28.4449219 12.2274414,28.0483398 L12.2274414,28.0483398 L11.7491211,25.4629883 C10.6623047,25.0542969 9.65419922,24.4669922 8.75205078,23.725293 L8.75205078,23.725293 L6.27265625,24.60625 C5.89121094,24.7394531 5.47041016,24.6244141 5.21005859,24.3186523 L5.21005859,24.3186523 L5.15556641,24.2550781 C4.10205078,23.0138672 3.29072266,21.6061523 2.74277344,20.0803711 L2.74277344,20.0803711 L2.71552734,20.0016602 C2.57929687,19.6202148 2.69130859,19.1963867 2.99707031,18.9360352 L2.99707031,18.9360352 L5.00419922,17.2225586 C4.91035156,16.6564453 4.86494141,16.0751953 4.86494141,15.4939453 C4.86494141,14.9157227 4.91035156,14.3344727 5.00419922,13.765332 L5.00419922,13.765332 L2.99707031,12.0518555 C2.69130859,11.7884766 2.57929687,11.3646484 2.71552734,10.9862305 L2.71552734,10.9862305 L2.74277344,10.9075195 C3.29072266,9.38173828 4.10205078,7.97705078 5.15556641,6.7328125 L5.15556641,6.7328125 L5.21005859,6.66923828 C5.47041016,6.36044922 5.89423828,6.2484375 6.27265625,6.38164063 L6.27265625,6.38164063 L8.75205078,7.26259766 C9.65419922,6.52089844 10.6623047,5.93662109 11.7491211,5.52490234 L11.7491211,5.52490234 L12.2274414,2.93955078 C12.3000977,2.54296875 12.6119141,2.23417969 13.0084961,2.16152344 L13.0084961,2.16152344 Z M15.5,11.8066406 C14.5948242,11.8066406 13.7441406,12.1578125 13.1023437,12.7996094 C12.4635742,13.4414063 12.109375,14.2920898 12.109375,15.1972656 C12.109375,16.1024414 12.4635742,16.953125 13.1023437,17.5949219 C13.7441406,18.2336914 14.5948242,18.5878906 15.5,18.5878906 C16.4051758,18.5878906 17.2558594,18.2336914 17.8976562,17.5949219 C18.5364258,16.953125 18.890625,16.1024414 18.890625,15.1972656 C18.890625,14.2920898 18.5364258,13.4414063 17.8976562,12.7996094 C17.2558594,12.1578125 16.4051758,11.8066406 15.5,11.8066406 Z" id="形状结合" fill="#292B55"></path>
                <path d="M15.5,9.86914062 C12.5574219,9.86914062 10.171875,12.2546875 10.171875,15.1972656 C10.171875,18.1398437 12.5574219,20.5253906 15.5,20.5253906 C18.4425781,20.5253906 20.828125,18.1398437 20.828125,15.1972656 C20.828125,12.2546875 18.4425781,9.86914062 15.5,9.86914062 Z" id="路径" fill="#FFFFFF"></path>
                <path d="M17.8976563,17.5949219 C17.2558594,18.2336914 16.4051758,18.5878906 15.5,18.5878906 C14.5948242,18.5878906 13.7441406,18.2336914 13.1023438,17.5949219 C12.4635742,16.953125 12.109375,16.1024414 12.109375,15.1972656 C12.109375,14.2920898 12.4635742,13.4414062 13.1023438,12.7996094 C13.7441406,12.1578125 14.5948242,11.8066406 15.5,11.8066406 C16.4051758,11.8066406 17.2558594,12.1578125 17.8976563,12.7996094 C18.5364258,13.4414062 18.890625,14.2920898 18.890625,15.1972656 C18.890625,16.1024414 18.5364258,16.953125 17.8976563,17.5949219 Z" id="路径" fill="#FEBF48"></path>
            </g>
        </g>
    </g>
</svg>