<?xml version="1.0" encoding="UTF-8"?>
<svg width="28px" height="28px" viewBox="0 0 28 28" version="1.1" xmlns="http://www.w3.org/2000/svg" xmlns:xlink="http://www.w3.org/1999/xlink">
    <!-- Generator: Sketch 61.2 (89653) - https://sketch.com -->
    <title>统计-选中</title>
    <desc>Created with Sketch.</desc>
    <g id="页面-1" stroke="none" stroke-width="1" fill="none" fill-rule="evenodd">
        <g id="iPhone-11-Pro备份-7" transform="translate(-49.000000, -741.000000)" fill-rule="nonzero">
            <g id="编组-2">
                <g id="编组-5" transform="translate(0.000000, 732.000000)">
                    <g id="编组-6" transform="translate(47.000000, 7.000000)">
                        <g id="统计-选中">
                            <rect id="矩形" fill="#000000" opacity="0" x="0" y="0" width="32" height="32"></rect>
                            <path d="M27,16.1875 L15.8125,16.1875 L15.8125,5 C15.8125,4.8625 15.7,4.75 15.5625,4.75 L14.75,4.75 C13.0625,4.75 11.425,5.08125 9.884375,5.73125 C8.396875,6.359375 7.059375,7.2625 5.9125,8.409375 C4.765625,9.55625 3.8625,10.89375 3.234375,12.38125 C2.58125,13.925 2.25,15.5625 2.25,17.25 C2.25,18.9375 2.58125,20.575 3.23125,22.115625 C3.859375,23.603125 4.7625,24.940625 5.909375,26.0875 C7.05625,27.234375 8.39375,28.1375 9.88125,28.765625 C11.425,29.41875 13.0625,29.75 14.75,29.75 C16.4375,29.75 18.075,29.41875 19.615625,28.76875 C21.103125,28.140625 22.440625,27.2375 23.5875,26.090625 C24.734375,24.94375 25.6375,23.60625 26.265625,22.11875 C26.91875,20.575 27.25,18.9375 27.25,17.25 L27.25,16.4375 C27.25,16.3 27.1375,16.1875 27,16.1875 Z" id="形状" fill="#292B55"></path>
                            <path d="M29.75,14.45 L29.66875,13.56875 C29.403125,10.690625 28.125,7.975 26.06875,5.925 C24.0125,3.871875 21.29375,2.596875 18.40625,2.33125 L17.521875,2.25 C17.375,2.2375 17.25,2.35 17.25,2.496875 L17.25,14.5 C17.25,14.6375 17.3625,14.75 17.5,14.75 L29.5,14.71875 C29.646875,14.71875 29.7625,14.59375 29.75,14.45 Z" id="路径" fill="#FEBF48"></path>
                        </g>
                    </g>
                </g>
            </g>
        </g>
    </g>
</svg>